<?xml version="1.0" standalone="no"?>
<!DOCTYPE svg PUBLIC "-//W3C//DTD SVG 20010904//EN"
 "http://www.w3.org/TR/2001/REC-SVG-20010904/DTD/svg10.dtd">
<svg version="1.0" xmlns="http://www.w3.org/2000/svg"
 width="277.000000pt" height="272.000000pt" viewBox="0 0 277.000000 272.000000"
 preserveAspectRatio="xMidYMid meet">
<metadata>
Created by potrace 1.10, written by Peter Selinger 2001-2011
</metadata>
<g transform="translate(0.000000,272.000000) scale(0.100000,-0.100000)"
fill="#000000" stroke="none">
<path d="M1167 1588 c-17 -14 -47 -77 -47 -102 0 -8 -4 -26 -9 -39 -9 -24 -12
-25 -49 -15 -88 22 -186 -41 -237 -153 -36 -80 -40 -206 -9 -260 42 -72 117
-96 189 -62 29 14 40 15 55 5 63 -39 98 7 134 174 14 71 33 158 40 194 45 211
46 232 14 254 -27 19 -58 20 -81 4z m73 -35 c0 -5 -5 -26 -11 -48 -5 -22 -14
-65 -19 -95 -5 -30 -16 -86 -25 -125 -20 -92 -56 -256 -59 -275 -2 -8 -15 -16
-31 -18 -26 -3 -27 -2 -23 32 2 20 0 36 -4 36 -4 0 -8 -4 -8 -9 0 -5 -19 -23
-42 -40 -56 -41 -102 -42 -148 -1 -33 29 -33 30 -32 119 0 74 5 98 27 144 33
70 87 115 149 123 43 6 48 4 82 -30 20 -20 38 -36 40 -36 2 0 4 10 4 22 0 12
7 64 17 115 l16 93 34 0 c18 0 33 -3 33 -7z"/>
<path d="M961 1303 c-39 -47 -61 -112 -61 -179 0 -62 17 -84 63 -84 40 0 86
40 113 96 10 21 19 41 20 44 0 3 4 24 8 46 5 29 3 52 -8 78 -14 34 -18 36 -60
36 -39 0 -48 -4 -75 -37z m87 -15 c46 -46 -36 -226 -93 -204 -39 14 -4 165 46
200 28 19 31 20 47 4z"/>
<path d="M133 1538 c-23 -24 -23 -28 -23 -284 0 -322 -9 -304 151 -304 137 0
196 17 259 76 68 64 94 127 94 234 0 130 -42 208 -144 268 -42 25 -55 27 -180
30 -132 4 -136 3 -157 -20z m333 -51 c102 -64 140 -201 94 -335 -41 -117 -126
-162 -307 -162 l-103 0 0 266 0 267 138 -5 c127 -4 140 -6 178 -31z"/>
<path d="M220 1261 l0 -211 75 0 c135 0 197 52 203 172 7 108 -4 152 -44 190
-40 38 -61 45 -161 54 l-73 7 0 -212z m174 145 c45 -19 66 -67 66 -153 0 -110
-55 -168 -153 -161 l-42 3 -3 150 c-1 82 0 155 2 162 7 17 87 17 130 -1z"/>
<path d="M2046 1539 c-14 -11 -38 -40 -52 -65 -23 -39 -30 -44 -60 -44 -43 0
-72 -27 -109 -101 -15 -30 -37 -67 -48 -83 -25 -36 -32 -25 -42 69 -5 50 -13
76 -28 93 -25 27 -72 29 -99 5 -18 -16 -21 -16 -47 0 -106 62 -237 7 -301
-128 -25 -53 -30 -75 -30 -139 0 -88 12 -118 64 -164 41 -35 88 -47 153 -38
84 11 139 67 114 115 -18 32 -38 38 -92 27 -34 -7 -55 -7 -66 0 -25 16 -27 34
-4 34 37 0 116 31 155 62 28 22 40 27 46 18 4 -6 12 -55 18 -107 13 -116 32
-143 97 -143 53 0 75 23 146 152 29 53 56 95 60 93 3 -3 9 -35 12 -72 11 -126
74 -257 136 -283 26 -11 35 -10 57 5 25 16 29 16 64 0 34 -15 40 -16 68 -1 17
9 45 40 65 73 93 155 90 415 -5 566 -48 76 -99 98 -140 60 -17 -15 -19 -15
-36 0 -25 23 -64 21 -96 -4z m185 -19 c12 0 31 -17 50 -47 94 -150 93 -412 -2
-556 -27 -41 -35 -47 -65 -47 l-35 0 24 33 c48 66 87 197 87 293 0 33 -9 92
-19 132 -20 76 -68 182 -83 182 -4 0 -8 5 -8 11 0 6 7 8 16 5 9 -3 24 -6 35
-6z m-108 -20 c-3 -11 -9 -20 -13 -20 -8 0 -43 -78 -55 -125 -5 -16 -10 -37
-12 -45 -2 -8 -5 -58 -5 -110 -2 -123 31 -247 80 -298 19 -21 14 -32 -17 -32
-33 0 -66 41 -103 130 -19 48 -22 73 -23 190 0 150 14 208 69 288 22 32 36 42
57 42 22 0 26 -4 22 -20z m65 -59 c29 -51 62 -181 62 -242 0 -26 -5 -72 -11
-101 -11 -55 -67 -188 -79 -188 -12 0 -48 74 -66 135 -24 81 -24 231 0 305 20
59 56 130 66 130 3 0 16 -18 28 -39z m-673 -51 c63 -24 81 -86 44 -147 -27
-43 -83 -70 -164 -78 -60 -7 -65 -9 -65 -32 0 -31 25 -79 45 -87 30 -11 96 -6
126 10 l30 15 -3 -32 c-2 -27 -9 -35 -38 -45 -85 -30 -176 -6 -207 56 -27 54
-10 209 29 255 72 87 133 112 203 85z m178 -42 c3 -24 11 -102 18 -173 l12
-131 87 171 86 170 37 3 c36 3 46 -5 28 -23 -5 -6 -23 -37 -41 -70 -18 -33
-45 -82 -60 -110 -15 -27 -44 -83 -65 -122 l-39 -73 -42 0 c-51 0 -46 -14 -69
210 -8 80 -18 155 -21 168 -6 20 -3 22 28 22 34 0 36 -2 41 -42z"/>
<path d="M1391 1305 c-29 -32 -56 -83 -48 -91 9 -9 120 17 142 33 53 39 39 93
-24 93 -30 0 -44 -7 -70 -35z"/>
<path d="M2429 1411 c-20 -20 -29 -39 -29 -61 0 -38 47 -90 82 -90 57 0 100
67 78 120 -27 64 -84 78 -131 31z m95 -33 c26 -43 -31 -99 -70 -68 -17 15 -18
62 -2 78 17 17 58 11 72 -10z"/>
<path d="M639 1091 c-20 -20 -29 -39 -29 -61 0 -39 47 -90 84 -90 36 0 76 39
82 80 5 30 1 41 -24 68 -38 41 -74 42 -113 3z m89 -23 c15 -15 15 -61 0 -76
-20 -20 -56 -14 -74 13 -15 23 -15 27 0 50 18 27 54 33 74 13z"/>
<path d="M2435 1097 c-20 -17 -30 -39 -41 -97 -8 -41 -14 -83 -14 -92 0 -20
37 -58 57 -58 23 0 70 54 91 105 35 87 36 108 8 138 -31 33 -66 35 -101 4z
m85 -34 c0 -19 -24 -92 -39 -121 -5 -9 -12 -25 -15 -34 -3 -11 -15 -18 -32
-18 -23 0 -25 3 -20 23 4 12 11 45 17 72 5 28 12 60 15 73 3 18 11 22 39 22
27 0 35 -4 35 -17z"/>
</g>
</svg>
