<?xml version="1.0" standalone="no"?>
<!DOCTYPE svg PUBLIC "-//W3C//DTD SVG 20010904//EN"
 "http://www.w3.org/TR/2001/REC-SVG-20010904/DTD/svg10.dtd">
<svg version="1.0" xmlns="http://www.w3.org/2000/svg"
 width="254.000000pt" height="255.000000pt" viewBox="0 0 254.000000 255.000000"
 preserveAspectRatio="xMidYMid meet">
<metadata>
Created by potrace 1.10, written by Peter Selinger 2001-2011
</metadata>
<g transform="translate(0.000000,255.000000) scale(0.100000,-0.100000)"
fill="#000000" stroke="none">
<path d="M1131 1528 c-5 -18 -15 -69 -22 -113 -7 -44 -14 -81 -15 -83 -1 -1
-18 14 -38 34 -34 34 -39 36 -82 30 -57 -7 -115 -51 -138 -103 -10 -21 -22
-47 -28 -59 -5 -11 -10 -57 -11 -100 -1 -88 14 -122 59 -142 55 -26 102 -9
162 58 l23 25 -7 -42 c-6 -41 -5 -43 18 -43 28 0 32 11 64 160 9 41 22 104 30
140 8 36 18 90 24 120 5 30 14 73 19 95 14 55 15 55 -18 55 -24 0 -31 -6 -40
-32z m-75 -219 c28 -55 0 -174 -53 -228 -26 -26 -67 -51 -84 -51 -8 0 -26 10
-38 22 -21 19 -23 28 -19 92 5 74 20 113 64 165 22 26 33 31 70 31 39 0 45 -3
60 -31z"/>
<path d="M110 1256 l0 -266 105 0 c206 0 297 64 318 224 10 72 -10 168 -44
216 -48 66 -93 82 -246 88 l-133 4 0 -266z m205 203 c50 -8 70 -18 98 -46 43
-41 51 -72 46 -180 -3 -62 -9 -85 -27 -111 -37 -51 -88 -72 -177 -72 l-75 0 0
210 0 210 37 0 c20 0 64 -5 98 -11z"/>
<path d="M2003 1478 c-51 -74 -68 -146 -68 -293 1 -111 4 -138 23 -182 37 -91
71 -133 103 -133 31 0 36 10 17 32 -79 86 -110 324 -60 467 12 35 33 84 47
108 l26 43 -29 0 c-22 0 -35 -9 -59 -42z"/>
<path d="M2146 1512 c23 -15 72 -120 88 -189 20 -89 20 -163 1 -246 -19 -80
-40 -133 -71 -174 l-25 -33 34 0 c35 0 49 13 85 80 77 142 68 392 -19 523 -27
42 -35 47 -67 47 -21 0 -32 -4 -26 -8z"/>
<path d="M1365 1386 c-84 -38 -135 -129 -135 -243 0 -107 49 -164 140 -162 70
1 114 21 118 52 4 32 7 31 -51 11 -27 -9 -59 -13 -73 -10 -39 10 -74 54 -74
91 0 33 0 33 63 40 112 13 188 71 187 143 -1 71 -96 113 -175 78z m105 -61
c33 -40 -29 -98 -119 -109 -47 -6 -53 -5 -47 9 3 9 6 21 6 26 0 5 16 27 36 49
30 33 43 40 74 40 21 0 43 -7 50 -15z"/>
<path d="M2412 1388 c-7 -7 -12 -24 -12 -38 0 -52 61 -71 82 -25 23 51 -32
101 -70 63z"/>
<path d="M1584 1373 c5 -17 21 -150 32 -268 10 -116 10 -115 58 -115 l43 0 43
83 c51 96 72 135 129 240 l43 78 -37 -3 -38 -3 -87 -171 -87 -171 -7 76 c-3
42 -11 120 -17 174 l-12 97 -34 0 c-28 0 -33 -3 -29 -17z"/>
<path d="M614 1055 c-15 -23 -15 -27 0 -50 29 -44 86 -28 86 25 0 53 -57 69
-86 25z"/>
<path d="M2404 1043 c-7 -44 -20 -98 -29 -130 -6 -19 -4 -23 16 -23 19 0 29
10 45 48 57 128 58 142 9 142 -32 0 -35 -3 -41 -37z"/>
</g>
</svg>
